#!OML:ASF F:\twosubjects\two\Thursday\Session 1\justin.ASF
:FULLY-SPECIFIED
:DEGREES
431
root 10.5174 17.8494 -12.3888 1.21862 -45.8469 4.91545
lowerback -2.14652 2.56601 -3.59205
upperback -0.0234231 3.50566 0.332774
thorax 0.941808 1.7351 2.4462
lowerneck -17.1005 8.14494 -2.89561
upperneck 23.5072 11.0466 4.44017
head 9.83612 5.35106 3.46042
rclavicle -6.29402e-014 2.38542e-015
rhumerus -25.3185 -13.7884 -79.5873
rradius 28.0194
rwrist -0.916144
rhand -16.6485 12.2809
rfingers 7.12502
rthumb 9.57445 -17.4815
lclavicle -6.29402e-014 2.38542e-015
lhumerus -24.73 11.5108 81.0098
lradius 28.8104
lwrist -12.1479
lhand -5.30878 44.1724
lfingers 7.12502
lthumb 20.4967 73.1105
rfemur -5.24352 -5.48601 8.00455
rtibia 22.1888
rfoot -16.5793 -17.8739
rtoes -14.6254
lfemur -6.96394 9.6048 -24.6955
ltibia 16.0945
lfoot -13.6705 -3.48776
ltoes -9.30125
432
root 10.5244 17.8517 -12.3977 1.33832 -46.0502 4.78055
lowerback -2.19219 2.48646 -3.53806
upperback -0.00286416 3.3992 0.456168
thorax 0.991383 1.68082 2.5434
lowerneck -17.3298 8.30594 -3.0623
upperneck 23.6774 11.3045 4.53746
head 9.90979 5.46236 3.57062
rclavicle 1.59773e-014 1.11319e-014
rhumerus -24.5088 -12.7569 -80.1094
rradius 28.2882
rwrist -1.29657
rhand -16.6386 12.4982
rfingers 7.12502
rthumb 9.58408 -17.2638
lclavicle 1.59773e-014 1.11319e-014
lhumerus -24.3859 10.7891 81.4043
lradius 29.7995
lwrist -11.3499
lhand -4.78407 44.2365
lfingers 7.12502
lthumb 21.0009 73.1195
rfemur -5.31924 -5.21816 8.14048
rtibia 22.0887
rfoot -16.5466 -17.9306
rtoes -14.7187
lfemur -7.15216 9.76523 -24.5857
ltibia 16.2981
lfoot -13.7266 -3.50372
ltoes -8.18594
433
root 10.533 17.8516 -12.3989 1.42234 -46.1779 4.6035
lowerback -2.17777 2.48049 -3.34711
upperback 0.0252158 3.38612 0.484375
thorax 1.02233 1.67424 2.46576
lowerneck -17.2029 8.33004 -2.73801
upperneck 23.3568 11.3791 3.99125
head 9.82945 5.46672 3.32271
rclavicle 1.1527e-013 1.07344e-014
rhumerus -23.848 -11.9764 -80.7123
rradius 28.7637
rwrist -1.77065
rhand -16.6633 12.2284
rfingers 7.12502
rthumb 9.56024 -17.5347
lclavicle 1.1527e-013 1.07344e-014
lhumerus -24.0504 10.1137 81.7574
lradius 30.8113
lwrist -10.7262
lhand -4.83553 43.8899
lfingers 7.12502
lthumb 20.9514 72.7784
rfemur -5.31827 -5.20793 8.25123
rtibia 22.046
rfoot -16.4684 -17.8126
rtoes -14.6879
lfemur -7.1639 9.7293 -24.4638
ltibia 16.3762
lfoot -13.6738 -3.31228
ltoes -8.98905
434
root 10.5429 17.849 -12.3937 1.23438 -46.2796 4.70792
lowerback -2.08412 2.52404 -3.29608
upperback 0.00146736 3.43958 0.445943
thorax 0.947268 1.70298 2.39356
lowerneck -16.8979 8.30452 -2.39805
upperneck 23.0185 11.3788 3.42447
head 9.71579 5.43721 3.04734
rclavicle 3.50358e-014 -7.15625e-015
rhumerus -23.4721 -11.3305 -81.1926
rradius 29.3411
rwrist -1.94918
rhand -16.5122 11.8314
rfingers 7.12502
rthumb 9.706 -17.925
lclavicle 3.50358e-014 -7.15625e-015
lhumerus -23.7181 9.29875 82.1371
lradius 31.5596
lwrist -10.0079
lhand -5.22008 43.5537
lfingers 7.12502
lthumb 20.5819 72.4826
rfemur -5.25423 -5.38022 8.08791
rtibia 22.0444
rfoot -16.3205 -17.5674
rtoes -14.9064
lfemur -7.01219 9.5466 -24.5759
ltibia 16.3538
lfoot -13.5591 -3.03649
ltoes -9.84245
435
root 10.5504 17.8436 -12.3934 1.16032 -46.5056 4.72165
lowerback -2.06215 2.55372 -3.25602
upperback -0.0779477 3.47555 0.503242
thorax 0.849884 1.72391 2.42703
lowerneck -16.7263 8.30653 -2.44214
upperneck 23.0658 11.4226 3.29673
head 9.70559 5.4377 3.00888
rclavicle -2.59166e-014 1.19271e-014
rhumerus -23.184 -10.5007 -81.503
rradius 29.8633
rwrist -2.28759
rhand -16.4127 11.7668
rfingers 7.12502
rthumb 9.80201 -17.9851
lclavicle -2.59166e-014 1.19271e-014
lhumerus -23.5606 8.69412 82.4588
lradius 32.2874
lwrist -9.56739
lhand -4.19846 43.6086
lfingers 7.12502
lthumb 21.5634 72.4281
rfemur -5.26005 -5.29604 8.02791
rtibia 22.067
rfoot -16.3596 -17.3787
rtoes -14.5587
lfemur -6.91268 9.55123 -24.5934
ltibia 16.3046
lfoot -13.4839 -2.89735
ltoes -9.64261
